<?xml version="1.0" encoding="utf-8"?>
<!-- Generator: Adobe Illustrator 24.2.3, SVG Export Plug-In . SVG Version: 6.00 Build 0)  -->
<svg version="1.1" id="Layer_1" xmlns="http://www.w3.org/2000/svg" xmlns:xlink="http://www.w3.org/1999/xlink" x="0px" y="0px"
	 viewBox="0 0 25 25" style="enable-background:new 0 0 25 25;" xml:space="preserve">
<style type="text/css">
	.st0{display:none;}
	.st1{display:inline;fill:#3DA8AA;}
	.st2{fill:#3DA8AA;}
	.st3{display:inline;}
</style>
<g id="FB" class="st0">
	<path class="st1" d="M20.19,0H4.81C2.16,0,0,2.16,0,4.81v15.38C0,22.84,2.16,25,4.81,25h7.34v-9.8H9.06v-3.44h3.22V8.83
		c0,0-0.4-1.61,1.27-2.93c1.68-1.32,3.89-1.21,3.89-1.21h3.22V7.9h-2.08c0,0-1.88-0.23-1.88,1.32v2.53h3.96l-0.47,3.49H16.7V25h3.49
		c2.64,0,4.81-2.16,4.81-4.81V4.81C25,2.16,22.84,0,20.19,0z"/>
</g>
<path class="st2" d="M0,0h8.65c2.22,0,3.3,0.79,3.3,3.12c0,2.03-0.56,2.44-1.34,2.72v0.05c1.22,0.2,1.67,1.05,1.67,2.84
	c0,2.61-1.18,3.16-2.77,3.16H0V0z M2.78,4.71h5.56c0.51,0,0.81-0.25,0.81-0.92c0-0.69-0.3-0.93-0.81-0.93H2.78V4.71z M2.78,9.04H8.4
	c0.6,0,1-0.18,1-0.86c0-0.8-0.4-0.98-1-0.98H2.78V9.04z"/>
<path class="st2" d="M13.36,0h2.78v8.84H25v3.05H13.36V0z"/>
<path class="st2" d="M0,17.16c0-3.48,1.49-4.3,4-4.3h4.46c2.51,0,4,0.83,4,4.3v3.55c0,3.48-1.49,4.3-4,4.3H4c-2.51,0-4-0.83-4-4.3
	V17.16z M2.86,19.58c0,1.73,0.28,2.38,1.59,2.38h3.56c1.32,0,1.59-0.65,1.59-2.38v-1.28c0-1.48-0.28-2.38-1.74-2.38H4.6
	c-1.47,0-1.74,0.9-1.74,2.38V19.58z"/>
<path class="st2" d="M13.16,17.16c0-3.48,1.49-4.3,4-4.3h4.19c3.16,0,3.6,1.49,3.6,3.81v0.38h-2.73c0-1.18-0.51-1.34-1.4-1.34H17.8
	c-1.4,0-1.77,0.45-1.77,2.48v1.48c0,2.03,0.36,2.48,1.77,2.48h2.97c0.73,0,1.45-0.14,1.45-1.3v-0.34h-3.46v-2.46H25v3.38
	c0,3.42-1.35,3.58-4.49,3.58h-3.35c-2.51,0-4-0.83-4-4.3C13.16,20.7,13.16,17.16,13.16,17.16z"/>
<g id="IG" class="st0">
	<g class="st3">
		<path class="st2" d="M18.58,0H6.42C2.89,0,0,2.89,0,6.42v12.15C0,22.11,2.89,25,6.42,25h12.15c3.53,0,6.42-2.89,6.42-6.42V6.42
			C25,2.89,22.11,0,18.58,0z M21.38,18.03c0,1.77-1.44,3.21-3.21,3.21H6.64c-1.77,0-3.21-1.44-3.21-3.21V6.49
			c0-1.77,1.44-3.21,3.21-3.21h11.53c1.77,0,3.21,1.44,3.21,3.21C21.38,6.49,21.38,18.03,21.38,18.03z"/>
		<path class="st2" d="M18.04,4.66H6.76c-1.08,0-1.96,0.88-1.96,1.96V17.9c0,1.08,0.88,1.96,1.96,1.96h11.28
			c1.08,0,1.96-0.88,1.96-1.96V6.62C20,5.54,19.12,4.66,18.04,4.66z M12.2,17.47c-2.73,0-4.95-2.22-4.95-4.95s2.22-4.95,4.95-4.95
			s4.95,2.22,4.95,4.95S14.93,17.47,12.2,17.47z M17.59,8.09c-0.61,0-1.11-0.5-1.11-1.11s0.5-1.11,1.11-1.11s1.11,0.5,1.11,1.11
			S18.2,8.09,17.59,8.09z"/>
		<circle class="st2" cx="12.2" cy="12.52" r="3.33"/>
	</g>
</g>
<g id="TW" class="st0">
	<g class="st3">
		<path class="st2" d="M25,4.75c-0.92,0.41-1.91,0.68-2.95,0.81c1.06-0.63,1.87-1.64,2.26-2.84c-0.99,0.59-2.09,1.01-3.26,1.24
			c-0.94-1-2.27-1.62-3.74-1.62c-2.83,0-5.13,2.3-5.13,5.13c0,0.4,0.05,0.79,0.13,1.17C8.05,8.43,4.27,6.38,1.74,3.28
			C1.3,4.04,1.05,4.92,1.05,5.86c0,1.78,0.91,3.35,2.28,4.27C2.49,10.1,1.7,9.87,1,9.49c0,0.02,0,0.04,0,0.06
			c0,2.49,1.77,4.56,4.11,5.03c-0.43,0.12-0.88,0.18-1.35,0.18c-0.33,0-0.65-0.03-0.97-0.09c0.65,2.04,2.55,3.52,4.79,3.56
			c-1.76,1.38-3.97,2.2-6.37,2.2c-0.41,0-0.82-0.02-1.22-0.07c2.27,1.46,4.97,2.3,7.86,2.3c9.43,0,14.59-7.82,14.59-14.59
			c0-0.22-0.01-0.44-0.01-0.66C23.44,6.68,24.31,5.78,25,4.75z"/>
	</g>
</g>
</svg>
