<?xml version="1.0" encoding="utf-8"?>
<!-- Generator: Adobe Illustrator 24.2.3, SVG Export Plug-In . SVG Version: 6.00 Build 0)  -->
<svg version="1.1" id="Layer_1" xmlns="http://www.w3.org/2000/svg" xmlns:xlink="http://www.w3.org/1999/xlink" x="0px" y="0px"
	 viewBox="0 0 254.96 21.13" style="enable-background:new 0 0 254.96 21.13;" xml:space="preserve">
<style type="text/css">
	.st0{fill:#3EA9AB;}
</style>
<g>
	<g>
		<path class="st0" d="M252.96,6.3c0,1.07-0.89,1.95-1.96,1.95c-1.1,0-1.97-0.85-1.97-1.95c0-1.08,0.88-1.95,1.97-1.95
			C252.1,4.35,252.96,5.21,252.96,6.3z M249.58,6.29c0,0.78,0.63,1.46,1.42,1.46s1.42-0.65,1.42-1.43c0-0.79-0.63-1.46-1.42-1.46
			C250.21,4.86,249.58,5.5,249.58,6.29z M251.29,7.31l-0.47-0.85h-0.04v0.85h-0.44V5.28h0.7c0.5,0,0.69,0.21,0.69,0.53
			c0,0.33-0.19,0.53-0.47,0.58c0.04,0.05,0.11,0.16,0.17,0.27l0.38,0.65L251.29,7.31L251.29,7.31z M250.97,5.62h-0.19v0.56h0.12
			c0.28,0,0.37-0.16,0.37-0.31C251.28,5.7,251.2,5.62,250.97,5.62z"/>
	</g>
	<g>
		<path class="st0" d="M81.26,6.75c-7.22,3.97,5.71,1.62,10.27,3.04c0.09,0.03,0.17,0.06,0.25,0.09c-0.56-4.5-4.4-7.99-9.06-7.99
			c-2.2,0-4.21,0.78-5.79,2.07C81.51,4.39,84.14,5.16,81.26,6.75z"/>
		<path class="st0" d="M87.36,10.94c-4.73-1.87-16.38,0.01-9.31-4.01c2.81-1.59,1.44-2.24-1.44-2.71C74.76,5.89,73.6,8.31,73.6,11
			c0,3.07,1.51,5.78,3.84,7.44C86.04,15.18,90.56,12.21,87.36,10.94z"/>
		<path class="st0" d="M82.72,20.13c4.67,0,8.52-3.5,9.06-8.03c-1.84,1.88-6.92,4.47-13.97,6.59
			C79.23,19.61,80.91,20.13,82.72,20.13z"/>
	</g>
	<g>
		<path class="st0" d="M94.74,5.04h10.47c2.9,0,4.31,0.79,4.31,3.11c0,2.03-0.74,2.42-1.75,2.72v0.05c1.59,0.2,2.18,1.05,2.18,2.83
			c0,2.6-1.54,3.15-3.62,3.15H94.75V5.04H94.74z M98.38,9.74h6.44c0.67,0,1.06-0.25,1.06-0.92c0-0.69-0.39-0.93-1.06-0.93h-6.44
			V9.74z M98.38,14.05h6.52c0.79,0,1.31-0.18,1.31-0.87c0-0.8-0.52-0.98-1.31-0.98h-6.52V14.05z"/>
		<path class="st0" d="M112.14,5.04h12.97v2.75h-9.34v1.9h8.85v2.46h-8.85v1.9h9.55v2.85h-13.19V5.04H112.14z"/>
		<path class="st0" d="M132.78,5.04h4.73l6.52,11.86h-4.05l-1.13-2.1h-7.37l-1.06,2.1h-4.06L132.78,5.04z M132.84,12.25h4.65
			l-2.36-4.46L132.84,12.25z"/>
		<path class="st0" d="M144.62,9.2c0-3.47,1.95-4.29,5.23-4.29h4.28c5.18,0,5.85,1.11,5.82,4.47h-3.64V9.05c0-0.85-0.62-1.1-1.7-1.1
			h-3.96c-1.92,0-2.28,0.9-2.28,2.38v1.28c0,1.72,0.36,2.38,2.08,2.38h3.88c1.64,0,2.13-0.16,2.13-1.64h3.64v1.11
			c0,2-0.72,3.57-4.37,3.57h-5.86c-3.28,0-5.23-0.82-5.23-4.29V9.2H144.62z"/>
		<path class="st0" d="M162.27,5.04h3.64v4.23h7.67V5.04h3.64V16.9h-3.64v-4.49h-7.67v4.49h-3.64V5.04z"/>
		<path class="st0" d="M179.67,5.04h10.47c2.9,0,4.31,0.79,4.31,3.11c0,2.03-0.74,2.42-1.75,2.72v0.05c1.59,0.2,2.18,1.05,2.18,2.83
			c0,2.6-1.54,3.15-3.62,3.15h-11.58V5.04H179.67z M183.3,9.74h6.44c0.67,0,1.06-0.25,1.06-0.92c0-0.69-0.39-0.93-1.06-0.93h-6.44
			V9.74z M183.3,14.05h6.52c0.79,0,1.31-0.18,1.31-0.87c0-0.8-0.52-0.98-1.31-0.98h-6.52V14.05z"/>
		<path class="st0" d="M196.8,9.2c0-3.47,1.95-4.29,5.23-4.29h5.83c3.28,0,5.23,0.82,5.23,4.29v3.54c0,3.47-1.95,4.29-5.23,4.29
			h-5.83c-3.28,0-5.23-0.82-5.23-4.29V9.2z M200.53,11.61c0,1.72,0.36,2.38,2.08,2.38h4.65c1.72,0,2.08-0.66,2.08-2.38v-1.28
			c0-1.47-0.36-2.38-2.28-2.38h-4.26c-1.92,0-2.28,0.9-2.28,2.38v1.28H200.53z"/>
		<path class="st0" d="M215.41,5.04h10.98c3.64,0,4.91,1.2,4.91,4.13v3.6c0,2.93-1.28,4.13-4.91,4.13h-10.98V5.04z M219.04,13.85
			h6.45c1.56,0,2.16-0.44,2.16-2.13v-1.6c0-1.69-0.61-2.13-2.16-2.13h-6.45V13.85z"/>
		<path class="st0" d="M238.02,12.77l-6.57-7.73h4.39l4,4.85l4-4.85h4.39l-6.57,7.73v4.13h-3.64L238.02,12.77L238.02,12.77z"/>
	</g>
</g>
<g>
	<path class="st0" d="M2.96,5.04h13.86v2.95h-5.11v8.91H8.07V7.99H2.96V5.04z"/>
	<path class="st0" d="M18.27,5.04h12.97v2.75H21.9v1.9h8.85v2.46H21.9v1.9h9.55v2.85H18.26V5.04H18.27z"/>
	<path class="st0" d="M38.85,5.04h4.73L50.1,16.9h-4.05l-1.13-2.1h-7.37l-1.06,2.1h-4.06L38.85,5.04z M38.91,12.25h4.65L41.2,7.79
		L38.91,12.25z"/>
	<path class="st0" d="M51.22,5.04h5.59l4.11,7.63l4.11-7.63h5.59V16.9h-3.54V8.38h-0.03l-4.77,8.52h-2.72l-4.77-8.52h-0.03v8.52
		h-3.54L51.22,5.04L51.22,5.04z"/>
</g>
</svg>
